<svg width="40" height="40" viewBox="0 0 40 40" fill="none" xmlns="http://www.w3.org/2000/svg">
<g clip-path="url(#clip0_419_4741)">
<path fill-rule="evenodd" clip-rule="evenodd" d="M9.13692 12.1661C9.17691 11.8501 9.37468 11.5759 9.66201 11.4383L11.083 10.7577C11.0993 10.7499 11.1159 10.7425 11.1327 10.7356C11.329 10.6552 11.5406 10.6184 11.7526 10.6278C11.9565 10.6368 12.1563 10.6883 12.339 10.779L22.8095 15.6545L25.8239 14.1123C26.036 13.9962 26.6353 13.7034 26.8025 13.6233C28.0345 13.0332 29.1998 12.6778 30.1828 12.6461C31.1588 12.6147 32.1992 12.9161 32.6826 13.9253C33.1662 14.9349 32.7472 15.9365 32.1122 16.6777C31.4716 17.4256 30.4651 18.1124 29.2355 18.7014C29.0664 18.7824 28.4667 19.0638 28.2413 19.1573L25.1499 20.5382L22.3695 31.7573C22.3254 31.9561 22.2404 32.1436 22.1197 32.3078C21.9943 32.4784 21.8333 32.6199 21.6479 32.7224C21.632 32.7312 21.6158 32.7395 21.5994 32.7474L20.1916 33.4217C19.9043 33.5593 19.5668 33.5416 19.2954 33.3747C19.0241 33.2077 18.8561 32.9145 18.8494 32.596L18.656 23.4469L13.488 25.7816L12.7059 28.9354C12.7043 28.9427 12.7026 28.9503 12.7008 28.9584C12.6655 29.1165 12.5969 29.4244 12.3912 29.6922C12.1683 29.9825 11.8616 30.1351 11.6495 30.2367L10.7025 30.6903C10.5987 30.7401 10.061 30.9823 9.57199 30.5724C9.37752 30.4093 9.29524 30.2157 9.2608 30.1177C9.2273 30.0224 9.21136 29.9356 9.20332 29.8853L8.45217 25.6288C8.44664 25.5975 8.44272 25.5659 8.4404 25.5342C8.44008 25.5298 8.4381 25.5257 8.43485 25.5227C8.41138 25.5008 8.38904 25.4777 8.36793 25.4535L5.51575 22.1861C5.51536 22.1857 5.51491 22.1852 5.5144 22.1847C5.49068 22.1588 5.33777 21.9923 5.26572 21.7544C5.21796 21.5967 5.18374 21.3372 5.31039 21.0586C5.43482 20.7849 5.64748 20.6409 5.79114 20.5721L6.78779 20.0947C7.22878 19.8835 7.88568 19.7853 8.46541 20.0706L11.3568 21.4176L16.4633 18.8781L9.46418 13.0018C9.22019 12.797 9.09692 12.4822 9.13692 12.1661ZM12.0183 12.698L18.5996 18.2236C18.7403 18.3403 18.8489 18.491 18.9151 18.6614C18.9827 18.8353 19.0039 19.0237 18.9766 19.2082C18.9493 19.3927 18.8745 19.5669 18.7595 19.7137C18.6549 19.8474 18.5201 19.9542 18.3666 20.0257L12.0023 23.1906C11.8076 23.2897 11.5925 23.3421 11.374 23.3437C11.1575 23.3454 10.9436 23.2972 10.7489 23.2029L7.67095 21.769C7.67044 21.769 7.66991 21.769 7.66937 21.7691C7.66161 21.7694 7.6527 21.7704 7.64323 21.7721L9.75414 24.1903C10.0658 24.4987 10.2607 24.9058 10.3055 25.3419L10.8684 28.5317C10.8709 28.5305 10.8733 28.5294 10.8756 28.5282C10.8769 28.5225 10.8783 28.5165 10.8797 28.5103C10.881 28.5046 10.8824 28.4989 10.8838 28.4932L11.7177 25.1305C11.767 24.9213 11.8634 24.7259 11.9995 24.5593C12.138 24.3898 12.3139 24.2546 12.5134 24.1644L18.9592 21.2525L18.9595 21.2523C19.122 21.179 19.3001 21.1464 19.4781 21.1574C19.6561 21.1685 19.8287 21.2228 19.981 21.3157C20.1333 21.4086 20.2605 21.5373 20.3517 21.6905C20.443 21.8438 20.4954 22.017 20.5045 22.1952C20.505 22.2045 20.5053 22.2138 20.5055 22.2231L20.6859 30.756L23.4183 19.7306C23.4625 19.5332 23.5568 19.3984 23.5992 19.3421C23.6593 19.2622 23.7209 19.2035 23.7632 19.1664C23.8416 19.0978 23.9404 19.0287 24.0469 18.9777C24.0544 18.9741 24.062 18.9706 24.0696 18.9672L27.4894 17.4396C27.499 17.4353 27.5088 17.4311 27.5186 17.4271C27.6666 17.367 28.2385 17.0999 28.4255 17.0103C29.5353 16.4788 30.2844 15.9294 30.6883 15.4579C31.0979 14.9797 31.0124 14.7788 30.9916 14.7353C30.9705 14.6913 30.8693 14.5 30.2432 14.5202C29.6241 14.5401 28.7268 14.7805 27.6125 15.3143C27.4251 15.4041 26.8545 15.6843 26.7207 15.7589C26.7109 15.7644 26.7009 15.7697 26.6909 15.7749L23.3114 17.5038C23.1482 17.5896 22.9651 17.6308 22.7806 17.6229C22.6252 17.6162 22.4737 17.575 22.337 17.5028L12.0183 12.698ZM11.0547 29.5883C11.0545 29.5874 11.0544 29.5866 11.0543 29.5857C11.0551 29.5903 11.0551 29.5914 11.0547 29.5883Z" fill="#828282" fill-opacity="0.5"/>
</g>
<defs>
<clipPath id="clip0_419_4741">
<rect width="30" height="30" fill="white" transform="translate(-0.00805664 12.9517) rotate(-25.5936)"/>
</clipPath>
</defs>
</svg>
