<svg width="42" height="50" viewBox="0 0 42 50" fill="none" xmlns="http://www.w3.org/2000/svg">
<path d="M0.194531 27.0096C-0.816113 44.8843 10.2653 48.7761 29.4498 49.8608C48.6342 50.9455 38.998 29.2035 38.998 29.2035C38.998 29.2035 38.0292 17.7581 21.3078 3.75058C4.52199 -6.22074 1.20517 9.13477 0.194531 27.0096Z" fill="#F9B7BB" fill-opacity="0.1"/>
<path d="M0.194531 27.0096C-0.816113 44.8843 10.2653 48.7761 29.4498 49.8608C48.6342 50.9455 38.998 29.2035 38.998 29.2035C38.998 29.2035 38.0292 17.7581 21.3078 3.75058C4.52199 -6.22074 1.20517 9.13477 0.194531 27.0096Z" fill="#F9B7BB" fill-opacity="0.16"/>
<path d="M0.194531 27.0096C-0.816113 44.8843 10.2653 48.7761 29.4498 49.8608C48.6342 50.9455 38.998 29.2035 38.998 29.2035C38.998 29.2035 38.0292 17.7581 21.3078 3.75058C4.52199 -6.22074 1.20517 9.13477 0.194531 27.0096Z" fill="#F9B7BB" fill-opacity="0.16"/>
</svg>
