<svg width="110" height="78" viewBox="0 0 110 78" fill="none" xmlns="http://www.w3.org/2000/svg">
<path d="M78.8213 12.0962C51.6201 -10.8261 32.2205 2.14333 7.61876 31.3375C-16.983 60.5317 29.0605 71.1459 29.0605 71.1459C29.0605 71.1459 48.4048 83.2553 90.6061 73.3861C126.47 58.6013 106.022 35.0184 78.8213 12.0962Z" fill="#F9B7BB" fill-opacity="0.16"/>
<path d="M78.8213 12.0962C51.6201 -10.8261 32.2205 2.14333 7.61876 31.3375C-16.983 60.5317 29.0605 71.1459 29.0605 71.1459C29.0605 71.1459 48.4048 83.2553 90.6061 73.3861C126.47 58.6013 106.022 35.0184 78.8213 12.0962Z" fill="#F9B7BB" fill-opacity="0.16"/>
<path d="M78.8213 12.0962C51.6201 -10.8261 32.2205 2.14333 7.61876 31.3375C-16.983 60.5317 29.0605 71.1459 29.0605 71.1459C29.0605 71.1459 48.4048 83.2553 90.6061 73.3861C126.47 58.6013 106.022 35.0184 78.8213 12.0962Z" fill="#F9B7BB" fill-opacity="0.16"/>
</svg>
