<svg width="53" height="26" viewBox="0 0 53 26" fill="none" xmlns="http://www.w3.org/2000/svg">
<rect x="0.833252" width="52" height="26" rx="13" fill="#333333"/>
<circle cx="13.8333" cy="13" r="11" fill="#D9D9D9"/>
<path d="M34.8335 5.2783C35.0158 5.50044 35.0779 5.83521 34.914 6.13613C34.3534 7.16474 34.0348 8.34302 34.0348 9.59686C34.0348 13.6173 37.3136 16.8727 41.3534 16.8727C41.8798 16.8727 42.3927 16.8175 42.8867 16.7129C43.2245 16.6413 43.5317 16.794 43.6964 17.0286C43.8663 17.2707 43.9019 17.6318 43.6651 17.9224C42.1366 19.7985 39.798 21 37.1768 21C32.5667 21 28.8333 17.2863 28.8333 12.71C28.8333 9.2658 30.9474 6.31197 33.9568 5.06009C34.3045 4.91545 34.6455 5.04909 34.8335 5.2783ZM33.6912 6.31064C31.4083 7.54229 29.8582 9.94609 29.8582 12.71C29.8582 16.7305 33.137 19.9859 37.1768 19.9859C39.2128 19.9859 41.0549 19.1598 42.3824 17.8244C42.045 17.8656 41.7016 17.8868 41.3534 17.8868C36.7433 17.8868 33.0098 14.1732 33.0098 9.59686C33.0098 8.43014 33.2527 7.31873 33.6912 6.31064Z" fill="#F4EBEB"/>
<path d="M39.6276 8.14824C39.6935 7.95059 39.9731 7.95059 40.0389 8.14824L40.4262 9.3101C40.5989 9.828 41.0053 10.2344 41.5232 10.407L42.685 10.7943C42.8827 10.8602 42.8827 11.1398 42.685 11.2057L41.5232 11.593C41.0053 11.7656 40.5989 12.172 40.4262 12.6899L40.0389 13.8518C39.9731 14.0494 39.6935 14.0494 39.6276 13.8518L39.2403 12.6899C39.0677 12.172 38.6613 11.7656 38.1434 11.593L36.9815 11.2057C36.7838 11.1398 36.7838 10.8602 36.9815 10.7943L38.1434 10.407C38.6613 10.2344 39.0677 9.82801 39.2403 9.31011L39.6276 8.14824Z" fill="#F4EBEB"/>
<path d="M42.6962 5.09883C42.7401 4.96706 42.9265 4.96706 42.9704 5.09883L43.2286 5.8734C43.3437 6.21867 43.6146 6.4896 43.9599 6.60469L44.7344 6.86288C44.8662 6.9068 44.8662 7.09319 44.7344 7.13711L43.9599 7.39531C43.6146 7.51039 43.3437 7.78133 43.2286 8.12659L42.9704 8.90117C42.9265 9.03294 42.7401 9.03294 42.6961 8.90117L42.438 8.12659C42.3229 7.78132 42.0519 7.5104 41.7067 7.39531L40.9321 7.13711C40.8003 7.09319 40.8003 6.9068 40.9321 6.86288L41.7067 6.60469C42.0519 6.4896 42.3229 6.21867 42.438 5.87341L42.6962 5.09883Z" fill="#F4EBEB"/>
</svg>
